<svg xmlns="http://www.w3.org/2000/svg" viewBox="0 0 149.97 46.137"><defs><style>.a{fill:#ff9027;}.b{fill:#394024;}</style></defs><g transform="translate(-1143.001 -986)"><path class="a" d="M2.06,16.577C-1.391,8.2-2.6-.479-2.6-9.427a68.992,68.992,0,0,1,.888-11.529H1.576A51.209,51.209,0,0,0,.534-9.93,83.256,83.256,0,0,0,3.745,13.579,83.256,83.256,0,0,0,6.957-9.93,51.322,51.322,0,0,0,5.914-20.956H9.2a68.993,68.993,0,0,1,.89,11.529c0,8.948-1.214,17.624-4.666,26Z" transform="translate(1156.364 1012.542)"/><path class="a" d="M.105.084A.732.732,0,1,1,.057,1.116.731.731,0,0,1,.105.084" transform="translate(1171.767 1000.739)"/><path class="a" d="M.105.084A.732.732,0,1,1,.057,1.117.733.733,0,0,1,.105.084" transform="translate(1171.767 1003.008)"/><path class="a" d="M.105.084A.729.729,0,0,1,1.137.135a.73.73,0,0,1-1.08.983A.735.735,0,0,1,.105.084" transform="translate(1173.315 1004.778)"/><path class="a" d="M.105.084A.732.732,0,1,1,.057,1.116.733.733,0,0,1,.105.084" transform="translate(1171.308 1010.698)"/><path class="a" d="M.118.073a.732.732,0,1,1-.1,1.03.73.73,0,0,1,.1-1.03" transform="translate(1171.217 1013.007)"/><path class="a" d="M.121.07A.732.732,0,1,1,.006,1.1.735.735,0,0,1,.121.07" transform="translate(1172.692 1014.85)"/><path class="a" d="M.105.084A.73.73,0,1,1,.057,1.116.73.73,0,0,1,.105.084" transform="translate(1172.856 1009.285)"/><path class="a" d="M.135.06A.731.731,0,1,1-.037,1.077.728.728,0,0,1,.135.06" transform="translate(1169.785 1020.589)"/><path class="a" d="M.143.055a.73.73,0,1,1-.2,1.014A.73.73,0,0,1,.143.055" transform="translate(1169.606 1023.134)"/><path class="a" d="M.136.059A.731.731,0,1,1-.036,1.077.732.732,0,0,1,.136.059" transform="translate(1171.508 1019.355)"/><path class="a" d="M.033.182a.731.731,0,1,1,.34.976A.728.728,0,0,1,.033.182" transform="translate(1175.143 997.213)"/><path class="a" d="M0,.307a.732.732,0,1,1,.693.765A.733.733,0,0,1,0,.307" transform="translate(1175.776 994.813)"/><path class="a" d="M.006.383A.733.733,0,0,1,.588-.471.731.731,0,1,1,.006.383" transform="translate(1175.682 992.136)"/><path class="a" d="M.044.485A.732.732,0,0,1,1.308-.252.732.732,0,0,1,.044.485" transform="translate(1174.837 989.703)"/><path class="a" d="M.105.084A.732.732,0,1,1,.057,1.117.735.735,0,0,1,.105.084" transform="translate(1173.594 999.047)"/><path class="a" d="M.54.084A.731.731,0,0,0-.493.133a.733.733,0,0,0,.05,1.033.729.729,0,0,0,1.032-.05A.73.73,0,0,0,.54.084" transform="translate(1147.825 1000.739)"/><path class="a" d="M.54.084A.733.733,0,0,0-.493.132a.733.733,0,0,0,.05,1.033A.727.727,0,0,0,.588,1.117.733.733,0,0,0,.54.084" transform="translate(1147.825 1003.008)"/><path class="a" d="M.539.084A.727.727,0,0,0-.491.135a.731.731,0,0,0,.045,1.03A.732.732,0,0,0,.587,1.119.733.733,0,0,0,.539.084" transform="translate(1146.279 1004.778)"/><path class="a" d="M.541.084A.73.73,0,0,0-.491.132.729.729,0,0,0-.444,1.166a.726.726,0,0,0,1.032-.05A.73.73,0,0,0,.541.084" transform="translate(1148.287 1010.698)"/><path class="a" d="M.528.073A.731.731,0,0,0-.5.174.732.732,0,0,0-.4,1.2a.732.732,0,0,0,1.03-.1.733.733,0,0,0-.1-1.03" transform="translate(1148.376 1013.007)"/><path class="a" d="M.524.07A.732.732,0,0,0-.387,1.216.731.731,0,0,0,.639,1.1.735.735,0,0,0,.524.07" transform="translate(1146.902 1014.85)"/><path class="a" d="M.54.084A.733.733,0,0,0-.493.132.734.734,0,0,0-.445,1.166a.729.729,0,0,0,1.032-.05A.73.73,0,0,0,.54.084" transform="translate(1146.739 1009.285)"/><path class="a" d="M.509.06A.725.725,0,0,0-.506.232.725.725,0,0,0-.338,1.249.73.73,0,0,0,.681,1.077.726.726,0,0,0,.509.06" transform="translate(1149.809 1020.589)"/><path class="a" d="M.5.055a.731.731,0,0,0-1.014.2A.731.731,0,0,0,.7,1.068.733.733,0,0,0,.5.055" transform="translate(1149.989 1023.134)"/><path class="a" d="M.509.059A.73.73,0,0,0-.509.233.733.733,0,0,0-.337,1.252.731.731,0,0,0,.509.059" transform="translate(1148.087 1019.355)"/><path class="a" d="M.613.182A.729.729,0,0,0-.363-.155.728.728,0,0,0-.7.819a.726.726,0,0,0,.974.339A.729.729,0,0,0,.613.182" transform="translate(1144.45 997.213)"/><path class="a" d="M.645.307A.731.731,0,0,0-.121-.388.731.731,0,0,0-.815.379a.729.729,0,0,0,.765.693A.73.73,0,0,0,.645.307" transform="translate(1143.817 994.813)"/><path class="a" d="M.64.383A.733.733,0,0,0,.056-.471.729.729,0,0,0-.8.113.73.73,0,0,0-.214.965.731.731,0,0,0,.64.383" transform="translate(1143.912 992.136)"/><path class="a" d="M.6.485a.731.731,0,0,0-.261-1,.733.733,0,0,0-1,.261A.732.732,0,0,0-.4.747.729.729,0,0,0,.6.485" transform="translate(1144.757 989.703)"/><path class="a" d="M.541.084A.735.735,0,0,0-.495.134a.732.732,0,0,0,.05,1.032A.729.729,0,0,0,.587,1.117.733.733,0,0,0,.541.084" transform="translate(1146 999.047)"/><path class="a" d="M2.233.9a.623.623,0,1,1,.041.881A.624.624,0,0,1,2.233.9M8.112,33.421,3.939,30.48a.773.773,0,0,1-.122-1.085l2.792-3.267a1.548,1.548,0,0,0-.1-2.19L3.011,20.755a.773.773,0,0,1-.048-1.091l3.186-3.493a1.551,1.551,0,0,0-.1-2.19L1.42,9.752a1.6,1.6,0,0,1-.1-2.189L6.136,1.132A1.291,1.291,0,0,0,6.05-.693,2.113,2.113,0,0,0,4.318-1.11,8.009,8.009,0,0,0-2.769,7.967a4.992,4.992,0,0,0,1.528,3.557L2.242,14.7A.772.772,0,0,1,2.294,15.8L-.89,19.289a1.55,1.55,0,0,0,.1,2.19L2.7,24.664a.773.773,0,0,1,.052,1.091l-2.8,3.514a1.548,1.548,0,0,0,.24,2.181l4.182,2.98A.774.774,0,0,1,4.5,35.516l-1.8,2.69a1.55,1.55,0,1,0,2.52,1.805L8.373,35.6a1.547,1.547,0,0,0-.261-2.176" transform="translate(1147.23 987.132)"/><path class="a" d="M2.84,1.285A.623.623,0,1,1,2.88.4a.623.623,0,0,1-.039.881M.8-1.6a2.113,2.113,0,0,0-1.732.417A1.29,1.29,0,0,0-1.021.64L3.8,7.072a1.609,1.609,0,0,1-.1,2.19L-.932,13.489a1.55,1.55,0,0,0-.1,2.19l3.188,3.493A.773.773,0,0,1,2.1,20.263l-3.5,3.183a1.553,1.553,0,0,0-.1,2.19L1.3,28.9a.77.77,0,0,1-.122,1.085L-3,32.929a1.549,1.549,0,0,0-.261,2.178l3.149,4.415a1.551,1.551,0,0,0,2.522-1.807l-1.8-2.69a.773.773,0,0,1,.134-1.085l4.178-2.98a1.548,1.548,0,0,0,.24-2.18l-2.8-3.514a.773.773,0,0,1,.048-1.093L5.9,20.988a1.553,1.553,0,0,0,.106-2.19l-3.19-3.491a.777.777,0,0,1,.054-1.093l3.485-3.183A5,5,0,0,0,7.886,7.475,8.012,8.012,0,0,0,.8-1.6" transform="translate(1167.894 987.623)"/><path class="b" d="M39.022,4.139V-3.908h2.241a7.531,7.531,0,0,1,1.571.161,3.387,3.387,0,0,1,1.143.478,3.6,3.6,0,0,1,1.216,1.426A4.274,4.274,0,0,1,45.629.124a4.4,4.4,0,0,1-.437,1.97,3.683,3.683,0,0,1-1.216,1.42A3.428,3.428,0,0,1,42.833,4a7.651,7.651,0,0,1-1.571.141Zm4.22.448A3.769,3.769,0,0,0,44.6,3.934a4.454,4.454,0,0,0,1.358-1.655A4.889,4.889,0,0,0,46.444.108a4.927,4.927,0,0,0-.487-2.171A4.448,4.448,0,0,0,44.6-3.716a3.822,3.822,0,0,0-1.343-.656,7.488,7.488,0,0,0-1.809-.206h-3.2V4.808h3.2a6.515,6.515,0,0,0,1.795-.22M29.823,1.073l1.709-4.057,1.685,4.057Zm1.549-5.293L27.516,4.808h.749l1.316-3.122h3.881l1.318,3.122h.75l-3.86-9.027ZM18.694,4.139V-3.908h2.233a7.563,7.563,0,0,1,1.573.161,3.412,3.412,0,0,1,1.144.478,3.717,3.717,0,0,1,1.223,1.426A4.41,4.41,0,0,1,25.3.124a4.542,4.542,0,0,1-.43,1.97,3.808,3.808,0,0,1-1.223,1.42A3.454,3.454,0,0,1,22.5,4a7.681,7.681,0,0,1-1.573.141Zm4.214.448a4.006,4.006,0,0,0,1.363-.654,4.542,4.542,0,0,0,1.358-1.655,4.932,4.932,0,0,0,.48-2.171,4.971,4.971,0,0,0-.48-2.171,4.536,4.536,0,0,0-1.358-1.653,4.063,4.063,0,0,0-1.35-.656,7.4,7.4,0,0,0-1.805-.206H17.9V4.808h3.215a6.51,6.51,0,0,0,1.793-.22M14.429-4.577h-.79V4.806h.79ZM10.648,2.37a2.856,2.856,0,0,0-.15-.89,2.469,2.469,0,0,0-.457-.745A4.915,4.915,0,0,0,8.323-.281c-.091-.047-.152-.066-.2-.1a4.215,4.215,0,0,1-1.487-.87,1.412,1.412,0,0,1-.344-1,1.663,1.663,0,0,1,.528-1.268,1.977,1.977,0,0,1,1.372-.5,3.029,3.029,0,0,1,1.033.186,4.8,4.8,0,0,1,1.109.593v-.838a5.279,5.279,0,0,0-1.044-.471A4.241,4.241,0,0,0,8.232-4.7,2.693,2.693,0,0,0,6.294-4a2.314,2.314,0,0,0-.749,1.775A2.129,2.129,0,0,0,6.031-.764,5,5,0,0,0,7.856.353a5.174,5.174,0,0,1,1.644.94,1.518,1.518,0,0,1,.351,1.05,1.77,1.77,0,0,1-.528,1.37,2,2,0,0,1-1.435.5,2.944,2.944,0,0,1-1.127-.254A5.251,5.251,0,0,1,5.513,3.2v.9A4.948,4.948,0,0,0,6.7,4.731a3.721,3.721,0,0,0,1.2.2,2.741,2.741,0,0,0,1.97-.715,2.427,2.427,0,0,0,.776-1.847m-13.3-6.3h1.56a2.518,2.518,0,0,1,1.623.45,1.525,1.525,0,0,1,.562,1.263,1.847,1.847,0,0,1-.247,1,1.613,1.613,0,0,1-.767.634A3.014,3.014,0,0,1-.608-.39c-.288.025-.77.043-1.463.043h-.58Zm0,4.23H-1.9A5.2,5.2,0,0,1-.7.405,1.342,1.342,0,0,1-.044.762a6.074,6.074,0,0,1,.494.627c.206.283.469.656.75,1.114L2.685,4.808h.842L.966.86A2.727,2.727,0,0,0,.611.405,3.443,3.443,0,0,0,.14.065,2.609,2.609,0,0,0,1.469-.8a2.245,2.245,0,0,0,.437-1.424,2.068,2.068,0,0,0-.779-1.746,3.689,3.689,0,0,0-2.264-.609H-3.39V4.808h.738ZM-6.7,4.166h-4.392V.353H-6.95v-.6h-4.137v-3.72h4.282v-.609h-5.031V4.808H-6.7ZM-18,4.962l3.937-9.539h-.8l-3.2,7.875-3.165-7.875h-.833l3.951,9.539Zm-7.542-.154h.8V-4.576h-.8Zm-10.963-8.43,6.869,8.289h.688V-4.7h-.74V3.462L-36.479-4.7h-.781V4.666h.752Zm-8.482,9.26A4.161,4.161,0,0,0-41.8,4.372,4.861,4.861,0,0,0-40.617.966v-6.2h-.894V1.014a3.874,3.874,0,0,1-.928,2.719A3.377,3.377,0,0,1-44.99,4.748a3.3,3.3,0,0,1-2.531-1.016,3.784,3.784,0,0,1-.955-2.719V-5.233h-.854v6.2a4.77,4.77,0,0,0,1.17,3.407,4.132,4.132,0,0,0,3.17,1.264M3.889,19.843a4.953,4.953,0,0,1-1.112,1.63,4.945,4.945,0,0,1-1.667,1.093,5.526,5.526,0,0,1-2.017.374,5.532,5.532,0,0,1-2-.374A5.215,5.215,0,0,1-4.57,21.473a4.72,4.72,0,0,1-1.112-1.63,4.639,4.639,0,0,1-.39-1.916,4.861,4.861,0,0,1,.39-1.938A4.912,4.912,0,0,1-4.57,14.381a5.875,5.875,0,0,1,1.707-1.107A5.171,5.171,0,0,1-.908,12.9a5.181,5.181,0,0,1,1.983.378,4.956,4.956,0,0,1,1.676,1.107A5.076,5.076,0,0,1,3.9,16.036a4.83,4.83,0,0,1,.376,1.891,4.725,4.725,0,0,1-.389,1.916m.969-7.372a8.073,8.073,0,0,0-2.622-1.664,8.815,8.815,0,0,0-3.143-.579A8.555,8.555,0,0,0-4,10.808a7.8,7.8,0,0,0-2.636,1.664,7.572,7.572,0,0,0-1.784,2.473,7.325,7.325,0,0,0-.623,2.918,7.573,7.573,0,0,0,.607,3,7.589,7.589,0,0,0,1.8,2.529,8.07,8.07,0,0,0,2.622,1.655,8.684,8.684,0,0,0,3.1.575,8.69,8.69,0,0,0,3.127-.562,8.365,8.365,0,0,0,2.654-1.667,7.809,7.809,0,0,0,1.764-2.466,7.289,7.289,0,0,0,.609-2.941,7.534,7.534,0,0,0-.595-2.993,7.614,7.614,0,0,0-1.795-2.52M53.5,22.847V19.141H60.62V16.553H53.5V12.993h7.343V10.417H50.488v15h10.59V22.847Zm-7.574-3.218a2.762,2.762,0,0,1-1.014,2.258,4.133,4.133,0,0,1-2.764.885,4.69,4.69,0,0,1-1.825-.346,3.7,3.7,0,0,1-1.377-1.016,2,2,0,0,1-.414-.845,7.985,7.985,0,0,1-.145-1.859V10.351h-2.8v8.436a10.09,10.09,0,0,0,.254,2.624,4.311,4.311,0,0,0,.854,1.621,6.268,6.268,0,0,0,2.361,1.811,7.617,7.617,0,0,0,3.09.611,6.968,6.968,0,0,0,4.716-1.59A5.176,5.176,0,0,0,48.7,19.691v-9.34H45.925Zm-14.909.206a5.015,5.015,0,0,1-1.11,1.653l-.014.014a4.949,4.949,0,0,1-3.639,1.542,5.044,5.044,0,0,1-1.968-.4A5.417,5.417,0,0,1,22.609,21.5v-.014a4.781,4.781,0,0,1-1.1-1.653,4.878,4.878,0,0,1-.392-1.972,4.988,4.988,0,0,1,.392-2A4.874,4.874,0,0,1,22.6,14.221a5.455,5.455,0,0,1,1.7-1.136,5.129,5.129,0,0,1,3.917,0,4.844,4.844,0,0,1,1.66,1.123,5.09,5.09,0,0,1,1.136,1.7,4.792,4.792,0,0,1,.39,1.95,5,5,0,0,1-.39,1.972m1.655,3.12a7.153,7.153,0,0,0,1.687-4.727,8.113,8.113,0,0,0-.595-3.084,8.02,8.02,0,0,0-1.78-2.558,7.824,7.824,0,0,0-2.608-1.7,8.435,8.435,0,0,0-3.124-.593,8.25,8.25,0,0,0-3.088.593,8.041,8.041,0,0,0-2.631,1.7,7.791,7.791,0,0,0-1.743,2.527,7.277,7.277,0,0,0-.632,2.971,7.678,7.678,0,0,0,1.68,4.906,7.8,7.8,0,0,0,4.334,2.756A19.8,19.8,0,0,0,27.937,27.9a8.662,8.662,0,0,0,3.344.767h.3a1.107,1.107,0,0,0,.244-.025l.12-.018,2.224-1.954L34,26.2l-.122-.3-.294.066a7.434,7.434,0,0,1-.772.118,3.353,3.353,0,0,1-.613.039,8,8,0,0,1-1.821-.236c-.394-.113-.845-.27-1.322-.457a8.34,8.34,0,0,0,3.616-2.481M13.77,16.6h0l-.319-.176a10.025,10.025,0,0,1-1.895-1.343,2.149,2.149,0,0,1-.419-.525.651.651,0,0,1-.125-.36,1.009,1.009,0,0,1,.48-.878,2.321,2.321,0,0,1,1.41-.39,4.043,4.043,0,0,1,1.528.3,7.749,7.749,0,0,1,1.718,1.035l.607.45V11.476l-.181-.109a8.82,8.82,0,0,0-1.786-.749,7.006,7.006,0,0,0-1.8-.253,5.219,5.219,0,0,0-3.414,1.127,3.731,3.731,0,0,0-1.361,2.934,3.541,3.541,0,0,0,.72,2.219,6.435,6.435,0,0,0,1.187,1.06c.546.414,1.245.861,2.092,1.381.534.306.96.589,1.295.826a4.606,4.606,0,0,1,.675.559,1.516,1.516,0,0,1,.344.94,1.2,1.2,0,0,1-.505,1,2.458,2.458,0,0,1-1.512.4,3.831,3.831,0,0,1-1.8-.433,7.387,7.387,0,0,1-1.823-1.465L8.232,20.2v3.752l.161.106a6.211,6.211,0,0,0,1.965,1.062,6.9,6.9,0,0,0,2.285.349,5.182,5.182,0,0,0,3.412-1.125,3.676,3.676,0,0,0,1.37-2.907,4.3,4.3,0,0,0-.729-2.547A9.19,9.19,0,0,0,13.77,16.6m-27.355,5.593a3.545,3.545,0,0,1-2.153.478h-2.6V18.613H-16.1a4.261,4.261,0,0,1,2.434.528,1.739,1.739,0,0,1,.677,1.549,1.724,1.724,0,0,1-.593,1.5m-4.753-10.245h1.753a3.015,3.015,0,0,1,1.857.435,1.368,1.368,0,0,1,.378.528,2.583,2.583,0,0,1,.125.845,1.766,1.766,0,0,1-.675,1.56,3.955,3.955,0,0,1-2.309.534h-1.13Zm5.547,4.82a3.626,3.626,0,0,0,1.03-.937,3.661,3.661,0,0,0,.638-2.214,4.06,4.06,0,0,0-1.4-3.279A5.779,5.779,0,0,0-16.352,9.2h-4.956V25.453h5.8a6.358,6.358,0,0,0,4.075-1.234,4.1,4.1,0,0,0,1.562-3.373,4.146,4.146,0,0,0-1.016-2.794,4.87,4.87,0,0,0-1.909-1.284m-21.347-6.43h-3.009V25.453h10.581V22.876h-7.573Zm-12.132,8.293H-39.2V15.88h-7.075V11.929h7.277V9.215H-49.271V25.453h10.512V22.7h-7.512Z" transform="translate(1231.892 996.931)"/><path class="b" d="M.962,1.751H.514l-1.73-3.964H-.7L.738,1.111,2.182-2.213h.512Z" transform="translate(1184.21 1028.906)"/><path class="b" d="M24.923-1.932h.459V.982h-.459Zm0,2.914.539-3.8a.3.3,0,0,1-.313.3.3.3,0,0,1-.306-.3.3.3,0,0,1,.306-.3.306.306,0,0,1,.313.3" transform="translate(1162.651 1029.674)"/><path class="b" d="M1.156.676A1.106,1.106,0,0,0,.068-.462,1.074,1.074,0,0,0-1.023.676,1.067,1.067,0,0,0,.068,1.807,1.1,1.1,0,0,0,1.156.676m.45,1.585A1.4,1.4,0,0,1,.073,3.613a1.468,1.468,0,0,1-1.438-.752l.389-.3a1.047,1.047,0,0,0,1.05.613A1,1,0,0,0,1.156,2.2V1.646A1.38,1.38,0,0,1,0,2.212,1.468,1.468,0,0,1-1.462.676,1.461,1.461,0,0,1,0-.854,1.388,1.388,0,0,1,1.156-.3V-.782h.45Z" transform="translate(1190.316 1028.524)"/><path class="b" d="M27.955-1.932h.457V.982h-.457Zm0,2.914.544-3.8a.306.306,0,0,1-.317.3.3.3,0,0,1-.306-.3.3.3,0,0,1,.306-.3.311.311,0,0,1,.317.3" transform="translate(1165.051 1029.674)"/><path class="b" d="M.2,1.684a.372.372,0,0,0,.41.385.834.834,0,0,0,.353-.088l.093.376a.96.96,0,0,1-.516.15.753.753,0,0,1-.793-.8V-2.129H.2Z" transform="translate(1194.745 1028.228)"/><path class="b" d="M.95.78V.63H-.037c-.478,0-.733.227-.733.553,0,.306.27.525.69.525A.971.971,0,0,0,.95.78M1.391.108V2H.95V1.559a1.309,1.309,0,0,1-1.094.523A.937.937,0,0,1-1.2,1.19C-1.2.649-.793.271-.03.271H.95V.139A.689.689,0,0,0,.207-.594.746.746,0,0,0-.608,0L-1.04-.1A1.154,1.154,0,0,1,.18-.986,1.066,1.066,0,0,1,1.391.108" transform="translate(1197.335 1028.656)"/><path class="b" d="M1.156,1.369A1.106,1.106,0,0,0,.068.232,1.074,1.074,0,0,0-1.023,1.369,1.067,1.067,0,0,0,.068,2.5,1.1,1.1,0,0,0,1.156,1.369M1.6,2.825H1.156V2.34a1.382,1.382,0,0,1-1.164.566A1.468,1.468,0,0,1-1.462,1.369,1.46,1.46,0,0,1-.008-.16,1.39,1.39,0,0,1,1.156.4v-2.13H1.6Z" transform="translate(1200.818 1027.83)"/><path class="b" d="M.952.78V.63H-.034c-.482,0-.734.227-.734.553,0,.306.272.525.691.525A.972.972,0,0,0,.952.78M1.389.108V2H.952V1.559a1.313,1.313,0,0,1-1.094.523A.94.94,0,0,1-1.2,1.19C-1.2.649-.8.271-.027.271h.98V.139A.689.689,0,0,0,.206-.594.742.742,0,0,0-.606,0l-.433-.1A1.155,1.155,0,0,1,.182-.986,1.063,1.063,0,0,1,1.389.108" transform="translate(1204.399 1028.656)"/><path class="b" d="M1.887,1.751H1.44V-1.158L-.093,1.751h-.3L-1.936-1.158V1.751h-.45V-2.213h.412L-.249,1.054,1.477-2.213h.41Z" transform="translate(1210.566 1028.906)"/><path class="b" d="M39.424-1.932h.451V.982h-.451Zm0,2.914.536-3.8a.3.3,0,0,1-.313.3.3.3,0,0,1-.306-.3.3.3,0,0,1,.306-.3.306.306,0,0,1,.313.3" transform="translate(1174.12 1029.674)"/><path class="b" d="M1.2.549V2.292H.752V.626A.819.819,0,0,0-.061-.28c-.611,0-1.01.412-1.01,1.171v1.4h-.448V-.622h.448v.485A1.241,1.241,0,0,1,.03-.694,1.144,1.144,0,0,1,1.2.549" transform="translate(1216.608 1028.365)"/><path class="b" d="M.2.566H2.229a.969.969,0,0,0-.983-.89A1.048,1.048,0,0,0,.2.566M2.688.909H.182A1.062,1.062,0,0,0,1.221,1.955a1,1,0,0,0,.992-.632l.4.1a1.394,1.394,0,0,1-1.393.93A1.475,1.475,0,0,1-.255.824a1.481,1.481,0,0,1,1.5-1.539A1.427,1.427,0,0,1,2.688.738Z" transform="translate(1218.77 1028.385)"/><path class="b" d="M1.153,1.369A1.1,1.1,0,0,0,.068.232,1.077,1.077,0,0,0-1.026,1.369,1.07,1.07,0,0,0,.068,2.5,1.1,1.1,0,0,0,1.153,1.369m.453,1.456H1.153V2.34A1.368,1.368,0,0,1,0,2.906,1.467,1.467,0,0,1-1.458,1.369,1.46,1.46,0,0,1,0-.16,1.376,1.376,0,0,1,1.153.4v-2.13h.453Z" transform="translate(1223.422 1027.83)"/><path class="b" d="M1.207,1.285H.75V.814a1.276,1.276,0,0,1-1.1.55A1.149,1.149,0,0,1-1.526.118V-1.625h.459V.041a.806.806,0,0,0,.8.9C.347.94.75.535.75-.223v-1.4h.457Z" transform="translate(1227.521 1029.367)"/><path class="b" d="M1.1.878l.417.109a1.417,1.417,0,0,1-1.384.971A1.49,1.49,0,0,1-1.389.42,1.493,1.493,0,0,1,.132-1.11a1.415,1.415,0,0,1,1.386.967l-.433.131A.961.961,0,0,0,.132-.694,1.071,1.071,0,0,0-.952.42,1.062,1.062,0,0,0,.132,1.537,1,1,0,0,0,1.1.878" transform="translate(1230.883 1028.78)"/><path class="b" d="M.952.78V.63H-.042c-.482,0-.733.227-.733.553,0,.306.269.525.688.525A.975.975,0,0,0,.952.78M1.384.108V2H.952V1.559a1.339,1.339,0,0,1-1.1.523A.934.934,0,0,1-1.2,1.19c0-.541.4-.919,1.17-.919H.952V.139A.694.694,0,0,0,.207-.594.745.745,0,0,0-.613,0l-.435-.1A1.159,1.159,0,0,1,.175-.986,1.063,1.063,0,0,1,1.384.108" transform="translate(1234.111 1028.656)"/><path class="b" d="M1.1.878l.414.109a1.4,1.4,0,0,1-1.376.971A1.493,1.493,0,0,1-1.389.42,1.5,1.5,0,0,1,.137-1.11a1.417,1.417,0,0,1,1.384.967L1.09-.012A.965.965,0,0,0,.137-.694,1.071,1.071,0,0,0-.95.42,1.062,1.062,0,0,0,.137,1.537.988.988,0,0,0,1.1.878" transform="translate(1237.516 1028.78)"/><path class="b" d="M54.109-1.932h.459V.982h-.459Zm0,2.914.539-3.8a.3.3,0,0,1-.312.3.3.3,0,0,1-.306-.3.3.3,0,0,1,.306-.3.3.3,0,0,1,.312.3" transform="translate(1185.74 1029.674)"/><path class="b" d="M.611.366l.475-.829h.532L1.01.366Zm1.27,1.927a1.085,1.085,0,0,0-1.1-1.121A1.093,1.093,0,0,0-.337,2.293,1.1,1.1,0,0,0,.779,3.427a1.1,1.1,0,0,0,1.1-1.134m.437,0A1.5,1.5,0,0,1,.779,3.828,1.506,1.506,0,0,1-.772,2.293,1.49,1.49,0,0,1,.779.773,1.488,1.488,0,0,1,2.318,2.293" transform="translate(1241.902 1026.904)"/><path class="b" d="M1.2.549V2.292H.755V.626A.823.823,0,0,0-.055-.28C-.669-.28-1.07.132-1.07.891v1.4h-.45V-.622h.45v.485a1.242,1.242,0,0,1,1.1-.557A1.144,1.144,0,0,1,1.2.549" transform="translate(1246.514 1028.365)"/></g></svg>